# WaveFront *.obj file (generated by Autodesk ATF)

mtllib hex_blue.mtl

g Body1

v 0.808289 -0.350000 0.001533
v 0.402817 -0.350000 0.700765
v -0.405472 -0.350000 0.699232
v -0.808289 -0.350000 -0.001533
v -0.402817 -0.350000 -0.700765
v 0.405472 -0.350000 -0.699232
v -0.525000 -0.350000 -0.000000
v -0.507111 -0.350000 0.135880
v -0.454663 -0.350000 0.262500
v -0.371231 -0.350000 0.371231
v -0.262500 -0.350000 0.454663
v -0.135880 -0.350000 0.507111
v -0.000000 -0.350000 0.525000
v 0.135880 -0.350000 0.507111
v 0.262500 -0.350000 0.454663
v 0.371231 -0.350000 0.371231
v 0.454663 -0.350000 0.262500
v 0.507111 -0.350000 0.135880
v 0.525000 -0.350000 -0.000000
v 0.507111 -0.350000 -0.135880
v 0.454663 -0.350000 -0.262500
v 0.371231 -0.350000 -0.371231
v 0.262500 -0.350000 -0.454663
v 0.135880 -0.350000 -0.507111
v -0.000000 -0.350000 -0.525000
v -0.135880 -0.350000 -0.507111
v -0.262500 -0.350000 -0.454663
v -0.371231 -0.350000 -0.371231
v -0.454663 -0.350000 -0.262500
v -0.507111 -0.350000 -0.135880
v 0.402817 3.500000 0.700765
v -0.405472 3.500000 0.699232
v -0.808289 3.500000 -0.001533
v -0.402817 3.500000 -0.700765
v 0.405472 3.500000 -0.699232
v 0.808289 3.500000 0.001533
v -0.525000 -3.500000 -0.000000
v -0.507111 -3.500000 0.135880
v -0.454663 -3.500000 0.262500
v -0.371231 -3.500000 0.371231
v -0.262500 -3.500000 0.454663
v -0.135880 -3.500000 0.507111
v -0.000000 -3.500000 0.525000
v 0.135880 -3.500000 0.507111
v 0.262500 -3.500000 0.454663
v 0.371231 -3.500000 0.371231
v 0.454663 -3.500000 0.262500
v 0.507111 -3.500000 0.135880
v 0.525000 -3.500000 -0.000000
v 0.507111 -3.500000 -0.135880
v 0.454663 -3.500000 -0.262500
v 0.371231 -3.500000 -0.371231
v 0.262500 -3.500000 -0.454663
v 0.135880 -3.500000 -0.507111
v -0.000000 -3.500000 -0.525000
v -0.135880 -3.500000 -0.507111
v -0.262500 -3.500000 -0.454663
v -0.371231 -3.500000 -0.371231
v -0.454663 -3.500000 -0.262500
v -0.507111 -3.500000 -0.135880
vt 0.402817 0.700765 0.000000
vt 0.454663 0.262500 0.000000
vt 0.808289 0.001533 0.000000
vt 0.507111 0.135880 0.000000
vt 0.525000 0.000000 0.000000
vt -0.405472 0.699232 0.000000
vt 0.000000 0.525000 0.000000
vt 0.135880 0.507111 0.000000
vt 0.262500 0.454663 0.000000
vt -0.808289 -0.001533 0.000000
vt -0.454663 0.262500 0.000000
vt -0.371231 0.371231 0.000000
vt -0.262500 0.454663 0.000000
vt -0.402817 -0.700765 0.000000
vt -0.454663 -0.262500 0.000000
vt -0.507111 -0.135880 0.000000
vt -0.525000 0.000000 0.000000
vt 0.405472 -0.699232 0.000000
vt 0.000000 -0.525000 0.000000
vt -0.135880 -0.507111 0.000000
vt -0.262500 -0.454663 0.000000
vt 0.454663 -0.262500 0.000000
vt 0.371231 -0.371231 0.000000
vt 0.262500 -0.454663 0.000000
vt -0.507111 0.135880 0.000000
vt -0.135880 0.507111 0.000000
vt 0.371231 0.371231 0.000000
vt 0.507111 -0.135880 0.000000
vt 0.135880 -0.507111 0.000000
vt -0.371231 -0.371231 0.000000
vt 0.000000 0.000000 0.000000
vt 0.808290 0.000000 0.000000
vt 0.000000 3.850000 0.000000
vt 0.808290 3.850000 0.000000
vt 0.000000 0.000000 0.000000
vt 0.808290 -0.000000 0.000000
vt -0.000000 3.850000 0.000000
vt 0.808290 3.850000 0.000000
vt 0.000000 0.000000 0.000000
vt 0.808290 -0.000000 0.000000
vt 0.000000 3.850000 0.000000
vt 0.808290 3.850000 0.000000
vt 0.000000 0.000000 0.000000
vt 0.808290 -0.000000 0.000000
vt -0.000000 3.850000 0.000000
vt 0.808290 3.850000 0.000000
vt 0.000000 0.000000 0.000000
vt 0.808290 0.000000 0.000000
vt 0.000000 3.850000 0.000000
vt 0.808290 3.850000 0.000000
vt 0.000000 0.000000 0.000000
vt 0.808290 0.000000 0.000000
vt -0.000000 3.850000 0.000000
vt 0.808290 3.850000 0.000000
vt 0.402817 -0.700765 0.000000
vt 0.808289 -0.001533 0.000000
vt -0.405472 -0.699232 0.000000
vt -0.808289 0.001533 0.000000
vt 0.405472 0.699232 0.000000
vt -0.402817 0.700765 0.000000
vt -0.000000 -1.511891 0.000000
vt -3.150000 -1.511891 0.000000
vt -0.000000 -1.649336 0.000000
vt -3.150000 -1.649336 0.000000
vt -0.000000 1.649336 0.000000
vt -3.150000 1.649336 0.000000
vt 0.000000 1.511891 0.000000
vt -3.150000 1.511891 0.000000
vt 0.000000 1.374447 0.000000
vt -3.150000 1.374447 0.000000
vt 0.000000 1.237002 0.000000
vt -3.150000 1.237002 0.000000
vt 0.000000 1.099557 0.000000
vt -3.150000 1.099557 0.000000
vt 0.000000 0.962113 0.000000
vt -3.150000 0.962113 0.000000
vt 0.000000 0.824668 0.000000
vt -3.150000 0.824668 0.000000
vt 0.000000 0.687223 0.000000
vt -3.150000 0.687223 0.000000
vt 0.000000 0.549779 0.000000
vt -3.150000 0.549779 0.000000
vt 0.000000 0.412334 0.000000
vt -3.150000 0.412334 0.000000
vt 0.000000 0.274889 0.000000
vt -3.150000 0.274889 0.000000
vt 0.000000 0.137445 0.000000
vt -3.150000 0.137445 0.000000
vt -0.000000 0.000000 0.000000
vt -3.150000 0.000000 0.000000
vt -0.000000 -0.137445 0.000000
vt -3.150000 -0.137445 0.000000
vt -0.000000 -0.274889 0.000000
vt -3.150000 -0.274889 0.000000
vt -0.000000 -0.412334 0.000000
vt -3.150000 -0.412334 0.000000
vt -0.000000 -0.549779 0.000000
vt -3.150000 -0.549779 0.000000
vt -0.000000 -0.687223 0.000000
vt -3.150000 -0.687223 0.000000
vt -0.000000 -0.824668 0.000000
vt -3.150000 -0.824668 0.000000
vt -0.000000 -0.962113 0.000000
vt -3.150000 -0.962113 0.000000
vt -0.000000 -1.099557 0.000000
vt -3.150000 -1.099557 0.000000
vt -0.000000 -1.237002 0.000000
vt -3.150000 -1.237002 0.000000
vt -0.000000 -1.374447 0.000000
vt -3.150000 -1.374447 0.000000
vt 0.507111 0.135880 0.000000
vt -0.507111 0.135880 0.000000
vt 0.525000 0.000000 0.000000
vt -0.525000 0.000000 0.000000
vt 0.507111 -0.135880 0.000000
vt -0.507111 -0.135880 0.000000
vt 0.454663 -0.262500 0.000000
vt -0.454663 -0.262500 0.000000
vt 0.371231 -0.371231 0.000000
vt -0.371231 -0.371231 0.000000
vt 0.262500 -0.454663 0.000000
vt -0.262500 -0.454663 0.000000
vt 0.135880 -0.507111 0.000000
vt -0.135880 -0.507111 0.000000
vt -0.000000 -0.525000 0.000000
vt -0.454663 0.262500 0.000000
vt 0.454663 0.262500 0.000000
vt -0.371231 0.371231 0.000000
vt 0.371231 0.371231 0.000000
vt -0.262500 0.454663 0.000000
vt 0.262500 0.454663 0.000000
vt -0.135880 0.507111 0.000000
vt 0.135880 0.507111 0.000000
vt -0.000000 0.525000 0.000000
vn -0.000000 -1.000000 -0.000000
vn -0.000000 -1.000000 -0.000000
vn -0.000000 -1.000000 -0.000000
vn -0.000000 -1.000000 -0.000000
vn -0.000000 -1.000000 -0.000000
vn -0.000000 -1.000000 -0.000000
vn -0.000000 -1.000000 -0.000000
vn -0.000000 -1.000000 -0.000000
vn -0.000000 -1.000000 -0.000000
vn -0.000000 -1.000000 -0.000000
vn -0.000000 -1.000000 -0.000000
vn -0.000000 -1.000000 -0.000000
vn -0.000000 -1.000000 -0.000000
vn -0.000000 -1.000000 -0.000000
vn -0.000000 -1.000000 -0.000000
vn -0.000000 -1.000000 -0.000000
vn -0.000000 -1.000000 -0.000000
vn -0.000000 -1.000000 -0.000000
vn -0.000000 -1.000000 -0.000000
vn -0.000000 -1.000000 -0.000000
vn -0.000000 -1.000000 -0.000000
vn -0.000000 -1.000000 -0.000000
vn -0.000000 -1.000000 -0.000000
vn -0.000000 -1.000000 -0.000000
vn -0.000000 -1.000000 -0.000000
vn -0.000000 -1.000000 -0.000000
vn -0.000000 -1.000000 -0.000000
vn -0.000000 -1.000000 -0.000000
vn -0.000000 -1.000000 -0.000000
vn -0.000000 -1.000000 -0.000000
vn -0.001896 -0.000000 0.999998
vn -0.001896 -0.000000 0.999998
vn -0.001896 -0.000000 0.999998
vn -0.001896 -0.000000 0.999998
vn -0.866972 -0.000000 0.498357
vn -0.866972 -0.000000 0.498357
vn -0.866972 -0.000000 0.498357
vn -0.866972 -0.000000 0.498357
vn -0.865076 0.000000 -0.501641
vn -0.865076 0.000000 -0.501641
vn -0.865076 0.000000 -0.501641
vn -0.865076 0.000000 -0.501641
vn 0.001896 0.000000 -0.999998
vn 0.001896 0.000000 -0.999998
vn 0.001896 0.000000 -0.999998
vn 0.001896 0.000000 -0.999998
vn 0.866972 0.000000 -0.498357
vn 0.866972 0.000000 -0.498357
vn 0.866972 0.000000 -0.498357
vn 0.866972 0.000000 -0.498357
vn 0.865076 -0.000000 0.501641
vn 0.865076 -0.000000 0.501641
vn 0.865076 -0.000000 0.501641
vn 0.865076 -0.000000 0.501641
vn 0.000000 1.000000 0.000000
vn 0.000000 1.000000 0.000000
vn 0.000000 1.000000 0.000000
vn 0.000000 1.000000 0.000000
vn 0.000000 1.000000 0.000000
vn 0.000000 1.000000 0.000000
vn -0.965926 -0.000000 0.258819
vn -0.965926 -0.000000 0.258819
vn -1.000000 -0.000000 0.000000
vn -1.000000 -0.000000 0.000000
vn -0.965926 0.000000 -0.258819
vn -0.965926 0.000000 -0.258819
vn -0.866025 0.000000 -0.500000
vn -0.866025 0.000000 -0.500000
vn -0.707107 0.000000 -0.707107
vn -0.707107 0.000000 -0.707107
vn -0.500000 0.000000 -0.866025
vn -0.500000 0.000000 -0.866025
vn -0.258819 0.000000 -0.965926
vn -0.258819 0.000000 -0.965926
vn 0.000000 0.000000 -1.000000
vn 0.000000 0.000000 -1.000000
vn 0.258819 0.000000 -0.965926
vn 0.258819 0.000000 -0.965926
vn 0.500000 0.000000 -0.866025
vn 0.500000 0.000000 -0.866025
vn 0.707107 0.000000 -0.707107
vn 0.707107 0.000000 -0.707107
vn 0.866025 0.000000 -0.500000
vn 0.866025 0.000000 -0.500000
vn 0.965926 0.000000 -0.258819
vn 0.965926 0.000000 -0.258819
vn 1.000000 -0.000000 -0.000000
vn 1.000000 0.000000 -0.000000
vn 0.965926 -0.000000 0.258819
vn 0.965926 -0.000000 0.258819
vn 0.866025 -0.000000 0.500000
vn 0.866025 -0.000000 0.500000
vn 0.707107 -0.000000 0.707107
vn 0.707107 -0.000000 0.707107
vn 0.500000 -0.000000 0.866025
vn 0.500000 -0.000000 0.866025
vn 0.258819 -0.000000 0.965926
vn 0.258819 -0.000000 0.965926
vn 0.000000 -0.000000 1.000000
vn 0.000000 -0.000000 1.000000
vn -0.258819 -0.000000 0.965926
vn -0.258819 -0.000000 0.965926
vn -0.500000 -0.000000 0.866025
vn -0.500000 -0.000000 0.866025
vn -0.707107 -0.000000 0.707107
vn -0.707107 -0.000000 0.707107
vn -0.866025 -0.000000 0.500000
vn -0.866025 -0.000000 0.500000
vn -0.000000 -1.000000 -0.000000
vn -0.000000 -1.000000 -0.000000
vn -0.000000 -1.000000 -0.000000
vn -0.000000 -1.000000 -0.000000
vn -0.000000 -1.000000 -0.000000
vn -0.000000 -1.000000 -0.000000
vn -0.000000 -1.000000 -0.000000
vn -0.000000 -1.000000 -0.000000
vn -0.000000 -1.000000 -0.000000
vn -0.000000 -1.000000 -0.000000
vn -0.000000 -1.000000 -0.000000
vn -0.000000 -1.000000 -0.000000
vn -0.000000 -1.000000 -0.000000
vn -0.000000 -1.000000 -0.000000
vn -0.000000 -1.000000 -0.000000
vn -0.000000 -1.000000 -0.000000
vn -0.000000 -1.000000 -0.000000
vn -0.000000 -1.000000 -0.000000
vn -0.000000 -1.000000 -0.000000
vn -0.000000 -1.000000 -0.000000
vn -0.000000 -1.000000 -0.000000
vn -0.000000 -1.000000 -0.000000
vn -0.000000 -1.000000 -0.000000
vn -0.000000 -1.000000 -0.000000
usemtl Opaque(36,0,243)
f 2/1/1 17/2/2 1/3/3
f 1/3/3 17/2/2 18/4/4
f 1/3/3 18/4/4 19/5/5
f 3/6/6 13/7/7 2/1/1
f 2/1/1 13/7/7 14/8/8
f 2/1/1 14/8/8 15/9/9
f 4/10/10 9/11/11 3/6/6
f 3/6/6 9/11/11 10/12/12
f 3/6/6 10/12/12 11/13/13
f 5/14/14 29/15/15 4/10/10
f 4/10/10 29/15/15 30/16/16
f 4/10/10 30/16/16 7/17/17
f 6/18/18 25/19/19 5/14/14
f 5/14/14 25/19/19 26/20/20
f 5/14/14 26/20/20 27/21/21
f 1/3/3 21/22/22 6/18/18
f 6/18/18 21/22/22 22/23/23
f 6/18/18 22/23/23 23/24/24
f 7/17/17 8/25/25 4/10/10
f 4/10/10 8/25/25 9/11/11
f 11/13/13 12/26/26 3/6/6
f 3/6/6 12/26/26 13/7/7
f 15/9/9 16/27/27 2/1/1
f 2/1/1 16/27/27 17/2/2
f 19/5/5 20/28/28 1/3/3
f 1/3/3 20/28/28 21/22/22
f 23/24/24 24/29/29 6/18/18
f 6/18/18 24/29/29 25/19/19
f 27/21/21 28/30/30 5/14/14
f 5/14/14 28/30/30 29/15/15
f 3/31/31 2/32/32 32/33/33
f 32/33/33 2/32/32 31/34/34
f 4/35/35 3/36/36 33/37/37
f 33/37/37 3/36/36 32/38/38
f 5/39/39 4/40/40 34/41/41
f 34/41/41 4/40/40 33/42/42
f 6/43/43 5/44/44 35/45/45
f 35/45/45 5/44/44 34/46/46
f 1/47/47 6/48/48 36/49/49
f 36/49/49 6/48/48 35/50/50
f 2/51/51 1/52/52 31/53/53
f 31/53/53 1/52/52 36/54/54
f 31/55/55 36/56/56 32/57/57
f 32/57/57 36/56/56 33/58/58
f 33/58/58 36/56/56 35/59/59
f 33/58/58 35/59/59 34/60/60
f 38/61/61 8/62/62 37/63/63
f 37/63/63 8/62/62 7/64/64
f 37/65/63 7/66/64 60/67/65
f 60/67/65 7/66/64 30/68/66
f 60/67/65 30/68/66 59/69/67
f 59/69/67 30/68/66 29/70/68
f 59/69/67 29/70/68 58/71/69
f 58/71/69 29/70/68 28/72/70
f 58/71/69 28/72/70 57/73/71
f 57/73/71 28/72/70 27/74/72
f 57/73/71 27/74/72 56/75/73
f 56/75/73 27/74/72 26/76/74
f 56/75/73 26/76/74 55/77/75
f 55/77/75 26/76/74 25/78/76
f 55/77/75 25/78/76 54/79/77
f 54/79/77 25/78/76 24/80/78
f 54/79/77 24/80/78 53/81/79
f 53/81/79 24/80/78 23/82/80
f 53/81/79 23/82/80 52/83/81
f 52/83/81 23/82/80 22/84/82
f 52/83/81 22/84/82 51/85/83
f 51/85/83 22/84/82 21/86/84
f 51/85/83 21/86/84 50/87/85
f 50/87/85 21/86/84 20/88/86
f 50/87/85 20/88/86 49/89/87
f 49/89/87 20/88/86 19/90/88
f 49/89/87 19/90/88 48/91/89
f 48/91/89 19/90/88 18/92/90
f 48/91/89 18/92/90 47/93/91
f 47/93/91 18/92/90 17/94/92
f 47/93/91 17/94/92 46/95/93
f 46/95/93 17/94/92 16/96/94
f 46/95/93 16/96/94 45/97/95
f 45/97/95 16/96/94 15/98/96
f 45/97/95 15/98/96 44/99/97
f 44/99/97 15/98/96 14/100/98
f 44/99/97 14/100/98 43/101/99
f 43/101/99 14/100/98 13/102/100
f 43/101/99 13/102/100 42/103/101
f 42/103/101 13/102/100 12/104/102
f 42/103/101 12/104/102 41/105/103
f 41/105/103 12/104/102 11/106/104
f 41/105/103 11/106/104 40/107/105
f 40/107/105 11/106/104 10/108/106
f 40/107/105 10/108/106 39/109/107
f 39/109/107 10/108/106 9/110/108
f 39/109/107 9/110/108 38/61/61
f 38/61/61 9/110/108 8/62/62
f 60/111/109 50/112/110 37/113/111
f 37/113/111 50/112/110 49/114/112
f 37/113/111 49/114/112 38/115/113
f 38/115/113 49/114/112 48/116/114
f 38/115/113 48/116/114 39/117/115
f 39/117/115 48/116/114 47/118/116
f 39/117/115 47/118/116 40/119/117
f 40/119/117 47/118/116 46/120/118
f 40/119/117 46/120/118 41/121/119
f 41/121/119 46/120/118 45/122/120
f 41/121/119 45/122/120 42/123/121
f 42/123/121 45/122/120 44/124/122
f 42/123/121 44/124/122 43/125/123
f 50/112/110 60/111/109 51/126/124
f 51/126/124 60/111/109 59/127/125
f 51/126/124 59/127/125 52/128/126
f 52/128/126 59/127/125 58/129/127
f 52/128/126 58/129/127 53/130/128
f 53/130/128 58/129/127 57/131/129
f 53/130/128 57/131/129 54/132/130
f 54/132/130 57/131/129 56/133/131
f 54/132/130 56/133/131 55/134/132
# 60 vertices
# 134 texture params
# 132 normals
# 116 facets

# 1 groups
