# WaveFront *.obj file (generated by Autodesk ATF)

mtllib inverted_u_yellow.mtl

g Body1

v -5.635000 0.350000 -1.050000
v -2.135000 0.350000 -1.050000
v -2.135000 0.350000 1.050000
v -5.635000 0.350000 1.050000
v -5.635000 3.500000 -1.050000
v -5.635000 3.500000 1.050000
v -1.435000 3.500000 -1.050000
v -1.435000 3.500000 1.050000
v -1.435000 -1.540000 -1.050000
v -1.435000 -1.540000 1.050000
v 1.435000 -1.540000 -1.050000
v 1.435000 -1.540000 1.050000
v 1.435000 3.500000 -1.050000
v 1.435000 3.500000 1.050000
v 5.635000 3.500000 -1.050000
v 5.635000 3.500000 1.050000
v 5.635000 0.350000 -1.050000
v 5.635000 0.350000 1.050000
v 2.135000 0.350000 -1.050000
v 2.135000 0.350000 1.050000
v 2.135000 -3.500000 -1.050000
v 2.135000 -3.500000 1.050000
v -2.135000 -3.500000 -1.050000
v -2.135000 -3.500000 1.050000
vt 0.000000 0.000000 0.000000
vt 3.500000 0.000000 0.000000
vt -0.000000 2.100000 0.000000
vt 3.500000 2.100000 0.000000
vt 0.000000 0.000000 0.000000
vt 3.150000 -0.000000 0.000000
vt -0.000000 2.100000 0.000000
vt 3.150000 2.100000 0.000000
vt 0.000000 0.000000 0.000000
vt 4.200000 -0.000000 0.000000
vt 0.000000 2.100000 0.000000
vt 4.200000 2.100000 0.000000
vt 0.000000 0.000000 0.000000
vt 5.040000 0.000000 0.000000
vt -0.000000 2.100000 0.000000
vt 5.040000 2.100000 0.000000
vt -0.000000 0.000000 0.000000
vt 2.870000 0.000000 0.000000
vt 0.000000 2.100000 0.000000
vt 2.870000 2.100000 0.000000
vt 0.000000 0.000000 0.000000
vt 5.040000 -0.000000 0.000000
vt -0.000000 2.100000 0.000000
vt 5.040000 2.100000 0.000000
vt -0.000000 0.000000 0.000000
vt 4.200000 -0.000000 0.000000
vt 0.000000 2.100000 0.000000
vt 4.200000 2.100000 0.000000
vt 0.000000 0.000000 0.000000
vt 3.150000 0.000000 0.000000
vt 0.000000 2.100000 0.000000
vt 3.150000 2.100000 0.000000
vt 0.000000 0.000000 0.000000
vt 3.500000 0.000000 0.000000
vt -0.000000 2.100000 0.000000
vt 3.500000 2.100000 0.000000
vt 0.000000 0.000000 0.000000
vt 3.850000 -0.000000 0.000000
vt 0.000000 2.100000 0.000000
vt 3.850000 2.100000 0.000000
vt 0.000000 0.000000 0.000000
vt 4.270000 0.000000 0.000000
vt -0.000000 2.100000 0.000000
vt 4.270000 2.100000 0.000000
vt 0.000000 0.000000 0.000000
vt 3.850000 0.000000 0.000000
vt -0.000000 2.100000 0.000000
vt 3.850000 2.100000 0.000000
vt 3.500000 -2.135000 0.000000
vt 1.540000 -1.435000 0.000000
vt -0.350000 -2.135000 0.000000
vt -3.500000 -1.435000 0.000000
vt -3.500000 -5.635000 0.000000
vt 1.540000 1.435000 0.000000
vt 3.500000 2.135000 0.000000
vt -0.350000 2.135000 0.000000
vt -0.350000 5.635000 0.000000
vt -3.500000 5.635000 0.000000
vt -3.500000 1.435000 0.000000
vt -0.350000 -5.635000 0.000000
vt 2.135000 0.350000 0.000000
vt 1.435000 -1.540000 0.000000
vt 2.135000 -3.500000 0.000000
vt -1.435000 -1.540000 0.000000
vt -2.135000 -3.500000 0.000000
vt -2.135000 0.350000 0.000000
vt -1.435000 3.500000 0.000000
vt -5.635000 3.500000 0.000000
vt 5.635000 0.350000 0.000000
vt 5.635000 3.500000 0.000000
vt 1.435000 3.500000 0.000000
vt -5.635000 0.350000 0.000000
vn 0.000000 -1.000000 -0.000000
vn 0.000000 -1.000000 -0.000000
vn 0.000000 -1.000000 -0.000000
vn 0.000000 -1.000000 -0.000000
vn -1.000000 -0.000000 0.000000
vn -1.000000 -0.000000 0.000000
vn -1.000000 -0.000000 0.000000
vn -1.000000 -0.000000 0.000000
vn 0.000000 1.000000 0.000000
vn 0.000000 1.000000 0.000000
vn 0.000000 1.000000 0.000000
vn 0.000000 1.000000 0.000000
vn 1.000000 0.000000 0.000000
vn 1.000000 0.000000 0.000000
vn 1.000000 0.000000 0.000000
vn 1.000000 0.000000 0.000000
vn -0.000000 1.000000 0.000000
vn -0.000000 1.000000 0.000000
vn -0.000000 1.000000 0.000000
vn -0.000000 1.000000 0.000000
vn -1.000000 -0.000000 -0.000000
vn -1.000000 -0.000000 -0.000000
vn -1.000000 -0.000000 -0.000000
vn -1.000000 -0.000000 -0.000000
vn -0.000000 1.000000 0.000000
vn -0.000000 1.000000 0.000000
vn -0.000000 1.000000 0.000000
vn -0.000000 1.000000 0.000000
vn 1.000000 0.000000 0.000000
vn 1.000000 0.000000 0.000000
vn 1.000000 0.000000 0.000000
vn 1.000000 0.000000 0.000000
vn 0.000000 -1.000000 -0.000000
vn 0.000000 -1.000000 -0.000000
vn 0.000000 -1.000000 -0.000000
vn 0.000000 -1.000000 -0.000000
vn 1.000000 -0.000000 -0.000000
vn 1.000000 -0.000000 -0.000000
vn 1.000000 -0.000000 -0.000000
vn 1.000000 -0.000000 -0.000000
vn -0.000000 -1.000000 -0.000000
vn -0.000000 -1.000000 -0.000000
vn -0.000000 -1.000000 -0.000000
vn -0.000000 -1.000000 -0.000000
vn -1.000000 -0.000000 -0.000000
vn -1.000000 -0.000000 -0.000000
vn -1.000000 -0.000000 -0.000000
vn -1.000000 -0.000000 -0.000000
vn 0.000000 -0.000000 1.000000
vn 0.000000 -0.000000 1.000000
vn 0.000000 -0.000000 1.000000
vn 0.000000 -0.000000 1.000000
vn 0.000000 -0.000000 1.000000
vn 0.000000 -0.000000 1.000000
vn 0.000000 -0.000000 1.000000
vn 0.000000 -0.000000 1.000000
vn 0.000000 -0.000000 1.000000
vn 0.000000 -0.000000 1.000000
vn 0.000000 -0.000000 1.000000
vn 0.000000 -0.000000 1.000000
vn -0.000000 0.000000 -1.000000
vn -0.000000 0.000000 -1.000000
vn -0.000000 0.000000 -1.000000
vn -0.000000 0.000000 -1.000000
vn -0.000000 0.000000 -1.000000
vn -0.000000 0.000000 -1.000000
vn -0.000000 0.000000 -1.000000
vn -0.000000 0.000000 -1.000000
vn -0.000000 0.000000 -1.000000
vn -0.000000 0.000000 -1.000000
vn -0.000000 0.000000 -1.000000
vn -0.000000 0.000000 -1.000000
usemtl Opaque(255,0,0)
f 1/1/1 2/2/2 4/3/3
f 4/3/3 2/2/2 3/4/4
f 5/5/5 1/6/6 6/7/7
f 6/7/7 1/6/6 4/8/8
f 7/9/9 5/10/10 8/11/11
f 8/11/11 5/10/10 6/12/12
f 9/13/13 7/14/14 10/15/15
f 10/15/15 7/14/14 8/16/16
f 11/17/17 9/18/18 12/19/19
f 12/19/19 9/18/18 10/20/20
f 13/21/21 11/22/22 14/23/23
f 14/23/23 11/22/22 12/24/24
f 15/25/25 13/26/26 16/27/27
f 16/27/27 13/26/26 14/28/28
f 17/29/29 15/30/30 18/31/31
f 18/31/31 15/30/30 16/32/32
f 19/33/33 17/34/34 20/35/35
f 20/35/35 17/34/34 18/36/36
f 21/37/37 19/38/38 22/39/39
f 22/39/39 19/38/38 20/40/40
f 23/41/41 21/42/42 24/43/43
f 24/43/43 21/42/42 22/44/44
f 2/45/45 23/46/46 3/47/47
f 3/47/47 23/46/46 24/48/48
f 24/49/49 10/50/50 3/51/51
f 3/51/51 10/50/50 8/52/52
f 3/51/51 8/52/52 6/53/53
f 10/50/50 24/49/49 12/54/54
f 12/54/54 24/49/49 22/55/55
f 12/54/54 22/55/55 20/56/56
f 18/57/57 16/58/58 20/56/56
f 20/56/56 16/58/58 14/59/59
f 20/56/56 14/59/59 12/54/54
f 6/53/53 4/60/60 3/51/51
f 2/61/61 9/62/62 23/63/63
f 23/63/63 9/62/62 11/64/64
f 23/63/63 11/64/64 21/65/65
f 21/65/65 11/64/64 19/66/66
f 19/66/66 11/64/64 13/67/67
f 19/66/66 13/67/67 15/68/68
f 1/69/69 5/70/70 2/61/61
f 2/61/61 5/70/70 7/71/71
f 2/61/61 7/71/71 9/62/62
f 15/68/68 17/72/72 19/66/66
# 24 vertices
# 72 texture params
# 72 normals
# 44 facets

# 1 groups
