# WaveFront *.obj file (generated by Autodesk ATF)

mtllib u_brown.mtl

g Body1

v 3.500000 -3.500000 -1.050000
v 3.500000 3.500000 -1.050000
v 3.500000 3.500000 1.050000
v 3.500000 -3.500000 1.050000
v 1.400000 -3.500000 -1.050000
v 1.400000 -3.500000 1.050000
v 1.400000 1.050000 -1.050000
v 1.400000 1.050000 1.050000
v -1.400000 1.050000 -1.050000
v -1.400000 1.050000 1.050000
v -1.400000 -3.500000 -1.050000
v -1.400000 -3.500000 1.050000
v -3.500000 -3.500000 -1.050000
v -3.500000 -3.500000 1.050000
v -3.500000 3.500000 -1.050000
v -3.500000 3.500000 1.050000
vt 0.000000 0.000000 0.000000
vt 7.000000 0.000000 0.000000
vt -0.000000 2.100000 0.000000
vt 7.000000 2.100000 0.000000
vt 0.000000 0.000000 0.000000
vt 2.100000 -0.000000 0.000000
vt -0.000000 2.100000 0.000000
vt 2.100000 2.100000 0.000000
vt 0.000000 0.000000 0.000000
vt 4.550000 -0.000000 0.000000
vt -0.000000 2.100000 0.000000
vt 4.550000 2.100000 0.000000
vt 0.000000 0.000000 0.000000
vt 2.800000 0.000000 0.000000
vt -0.000000 2.100000 0.000000
vt 2.800000 2.100000 0.000000
vt 0.000000 0.000000 0.000000
vt 4.550000 -0.000000 0.000000
vt 0.000000 2.100000 0.000000
vt 4.550000 2.100000 0.000000
vt 0.000000 0.000000 0.000000
vt 2.100000 0.000000 0.000000
vt 0.000000 2.100000 0.000000
vt 2.100000 2.100000 0.000000
vt 0.000000 0.000000 0.000000
vt 7.000000 -0.000000 0.000000
vt 0.000000 2.100000 0.000000
vt 7.000000 2.100000 0.000000
vt 0.000000 0.000000 0.000000
vt 7.000000 -0.000000 0.000000
vt -0.000000 2.100000 0.000000
vt 7.000000 2.100000 0.000000
vt -3.500000 3.500000 0.000000
vt -3.500000 -3.500000 0.000000
vt -1.400000 -1.050000 0.000000
vt 3.500000 -3.500000 0.000000
vt 1.400000 -1.050000 0.000000
vt 3.500000 3.500000 0.000000
vt 1.400000 3.500000 0.000000
vt -1.400000 3.500000 0.000000
vt -3.500000 3.500000 0.000000
vt -3.500000 -3.500000 0.000000
vt -1.400000 -1.050000 0.000000
vt 3.500000 -3.500000 0.000000
vt 1.400000 -1.050000 0.000000
vt 3.500000 3.500000 0.000000
vt 1.400000 3.500000 0.000000
vt -1.400000 3.500000 0.000000
vn 1.000000 0.000000 -0.000000
vn 1.000000 0.000000 -0.000000
vn 1.000000 0.000000 -0.000000
vn 1.000000 0.000000 -0.000000
vn 0.000000 -1.000000 0.000000
vn 0.000000 -1.000000 0.000000
vn 0.000000 -1.000000 0.000000
vn 0.000000 -1.000000 0.000000
vn -1.000000 -0.000000 0.000000
vn -1.000000 -0.000000 0.000000
vn -1.000000 -0.000000 0.000000
vn -1.000000 -0.000000 0.000000
vn 0.000000 -1.000000 0.000000
vn 0.000000 -1.000000 0.000000
vn 0.000000 -1.000000 0.000000
vn 0.000000 -1.000000 0.000000
vn 1.000000 0.000000 -0.000000
vn 1.000000 0.000000 -0.000000
vn 1.000000 0.000000 -0.000000
vn 1.000000 0.000000 -0.000000
vn 0.000000 -1.000000 0.000000
vn 0.000000 -1.000000 0.000000
vn 0.000000 -1.000000 0.000000
vn 0.000000 -1.000000 0.000000
vn -1.000000 -0.000000 0.000000
vn -1.000000 -0.000000 0.000000
vn -1.000000 -0.000000 0.000000
vn -1.000000 -0.000000 0.000000
vn -0.000000 1.000000 -0.000000
vn -0.000000 1.000000 -0.000000
vn -0.000000 1.000000 -0.000000
vn -0.000000 1.000000 -0.000000
vn -0.000000 0.000000 1.000000
vn -0.000000 0.000000 1.000000
vn -0.000000 0.000000 1.000000
vn -0.000000 0.000000 1.000000
vn -0.000000 0.000000 1.000000
vn -0.000000 0.000000 1.000000
vn -0.000000 0.000000 1.000000
vn -0.000000 0.000000 1.000000
vn 0.000000 -0.000000 -1.000000
vn 0.000000 -0.000000 -1.000000
vn 0.000000 -0.000000 -1.000000
vn 0.000000 -0.000000 -1.000000
vn 0.000000 -0.000000 -1.000000
vn 0.000000 -0.000000 -1.000000
vn 0.000000 -0.000000 -1.000000
vn 0.000000 -0.000000 -1.000000
usemtl Opaque(16,0,233)
f 1/1/1 2/2/2 4/3/3
f 4/3/3 2/2/2 3/4/4
f 5/5/5 1/6/6 6/7/7
f 6/7/7 1/6/6 4/8/8
f 7/9/9 5/10/10 8/11/11
f 8/11/11 5/10/10 6/12/12
f 9/13/13 7/14/14 10/15/15
f 10/15/15 7/14/14 8/16/16
f 11/17/17 9/18/18 12/19/19
f 12/19/19 9/18/18 10/20/20
f 13/21/21 11/22/22 14/23/23
f 14/23/23 11/22/22 12/24/24
f 15/25/25 13/26/26 16/27/27
f 16/27/27 13/26/26 14/28/28
f 2/29/29 15/30/30 3/31/31
f 3/31/31 15/30/30 16/32/32
f 4/33/33 3/34/34 8/35/35
f 8/35/35 3/34/34 16/36/36
f 8/35/35 16/36/36 10/37/37
f 10/37/37 16/36/36 14/38/38
f 10/37/37 14/38/38 12/39/39
f 8/35/35 6/40/40 4/33/33
f 13/41/41 15/42/42 9/43/43
f 9/43/43 15/42/42 2/44/44
f 9/43/43 2/44/44 7/45/45
f 7/45/45 2/44/44 1/46/46
f 7/45/45 1/46/46 5/47/47
f 9/43/43 11/48/48 13/41/41
# 16 vertices
# 48 texture params
# 48 normals
# 28 facets

# 1 groups
