# WaveFront *.obj file (generated by Autodesk ATF)

mtllib u_green.mtl

g Body1

v 3.500000 -3.550000 -1.050000
v 3.500000 3.450000 -1.050000
v 3.500000 3.450000 1.050000
v 3.500000 -3.550000 1.050000
v 1.400000 -3.550000 -1.050000
v 1.400000 -3.550000 1.050000
v 1.400000 -0.400000 1.050000
v 1.400000 -0.400000 -1.050000
v -1.400000 -0.400000 -1.050000
v -1.400000 -0.400000 1.050000
v -1.400000 -3.550000 1.050000
v -1.400000 -3.550000 -1.050000
v -3.500000 -3.550000 -1.050000
v -3.500000 -3.550000 1.050000
v -3.500000 3.450000 -1.050000
v -3.500000 3.450000 1.050000
vt 0.000000 0.000000 0.000000
vt 7.000000 -0.000000 0.000000
vt -0.000000 2.100000 0.000000
vt 7.000000 2.100000 0.000000
vt 0.000000 0.000000 0.000000
vt 2.100000 0.000000 0.000000
vt -0.000000 2.100000 0.000000
vt 2.100000 2.100000 0.000000
vt 1.400000 -0.000000 0.000000
vt 4.550000 -0.000000 0.000000
vt 1.400000 2.100000 0.000000
vt 4.550000 2.100000 0.000000
vt 3.150000 2.100000 0.000000
vt -0.000000 2.100000 0.000000
vt 3.150000 0.000000 0.000000
vt 0.000000 0.000000 0.000000
vt 0.000000 0.000000 0.000000
vt 2.100000 0.000000 0.000000
vt 0.000000 2.100000 0.000000
vt 2.100000 2.100000 0.000000
vt 0.000000 0.000000 0.000000
vt 7.000000 0.000000 0.000000
vt 0.000000 2.100000 0.000000
vt 7.000000 2.100000 0.000000
vt 0.000000 0.000000 0.000000
vt 7.000000 -0.000000 0.000000
vt 0.000000 2.100000 0.000000
vt 7.000000 2.100000 0.000000
vt -0.000000 4.550000 0.000000
vt -2.100000 4.550000 0.000000
vt -0.000000 1.400000 0.000000
vt -2.100000 -2.450000 0.000000
vt 4.900000 -2.450000 0.000000
vt 2.800000 1.400000 0.000000
vt 4.900000 4.550000 0.000000
vt 2.800000 4.550000 0.000000
vt 0.000000 1.400000 0.000000
vt 4.900000 -2.450000 0.000000
vt 2.800000 1.400000 0.000000
vt 4.900000 4.550000 0.000000
vt 2.800000 4.550000 0.000000
vt 0.000000 4.550000 0.000000
vt -2.100000 4.550000 0.000000
vt -2.100000 -2.450000 0.000000
vt -0.000000 -2.800000 0.000000
vt 2.100000 -2.800000 0.000000
vt 0.000000 0.000000 0.000000
vt 2.100000 -0.000000 0.000000
vn 1.000000 -0.000000 0.000000
vn 1.000000 -0.000000 0.000000
vn 1.000000 -0.000000 0.000000
vn 1.000000 -0.000000 0.000000
vn 0.000000 -1.000000 0.000000
vn 0.000000 -1.000000 0.000000
vn 0.000000 -1.000000 0.000000
vn 0.000000 -1.000000 0.000000
vn -1.000000 0.000000 0.000000
vn -1.000000 0.000000 0.000000
vn -1.000000 0.000000 0.000000
vn -1.000000 0.000000 0.000000
vn 1.000000 -0.000000 0.000000
vn 1.000000 -0.000000 0.000000
vn 1.000000 -0.000000 0.000000
vn 1.000000 -0.000000 0.000000
vn -0.000000 -1.000000 0.000000
vn -0.000000 -1.000000 0.000000
vn -0.000000 -1.000000 0.000000
vn -0.000000 -1.000000 0.000000
vn -1.000000 0.000000 0.000000
vn -1.000000 0.000000 0.000000
vn -1.000000 0.000000 0.000000
vn -1.000000 0.000000 0.000000
vn 0.000000 1.000000 -0.000000
vn 0.000000 1.000000 -0.000000
vn 0.000000 1.000000 -0.000000
vn 0.000000 1.000000 -0.000000
vn 0.000000 0.000000 1.000000
vn 0.000000 0.000000 1.000000
vn 0.000000 0.000000 1.000000
vn 0.000000 0.000000 1.000000
vn 0.000000 0.000000 1.000000
vn 0.000000 0.000000 1.000000
vn 0.000000 0.000000 1.000000
vn 0.000000 0.000000 1.000000
vn -0.000000 -0.000000 -1.000000
vn -0.000000 -0.000000 -1.000000
vn -0.000000 -0.000000 -1.000000
vn -0.000000 -0.000000 -1.000000
vn -0.000000 -0.000000 -1.000000
vn -0.000000 -0.000000 -1.000000
vn -0.000000 -0.000000 -1.000000
vn -0.000000 -0.000000 -1.000000
vn -0.000000 -1.000000 0.000000
vn -0.000000 -1.000000 0.000000
vn -0.000000 -1.000000 0.000000
vn -0.000000 -1.000000 0.000000
usemtl Opaque(39,236,0)
f 1/1/1 2/2/2 4/3/3
f 4/3/3 2/2/2 3/4/4
f 5/5/5 1/6/6 6/7/7
f 6/7/7 1/6/6 4/8/8
f 8/9/9 5/10/10 7/11/11
f 7/11/11 5/10/10 6/12/12
f 10/13/13 11/14/14 9/15/15
f 9/15/15 11/14/14 12/16/16
f 13/17/17 12/18/18 14/19/19
f 14/19/19 12/18/18 11/20/20
f 15/21/21 13/22/22 16/23/23
f 16/23/23 13/22/22 14/24/24
f 2/25/25 15/26/26 3/27/27
f 3/27/27 15/26/26 16/28/28
f 6/29/29 4/30/30 7/31/31
f 7/31/31 4/30/30 3/32/32
f 7/31/31 3/32/32 16/33/33
f 7/31/31 16/33/33 10/34/34
f 10/34/34 16/33/33 14/35/35
f 10/34/34 14/35/35 11/36/36
f 9/37/37 2/38/38 8/39/39
f 8/39/39 2/38/38 1/40/40
f 8/39/39 1/40/40 5/41/41
f 12/42/42 13/43/43 9/37/37
f 9/37/37 13/43/43 15/44/44
f 9/37/37 15/44/44 2/38/38
f 8/45/45 7/46/46 9/47/47
f 9/47/47 7/46/46 10/48/48
# 16 vertices
# 48 texture params
# 48 normals
# 28 facets

# 1 groups
